<svg width="14" height="16" xmlns="http://www.w3.org/2000/svg" xmlns:xlink="http://www.w3.org/1999/xlink" xml:space="preserve" overflow="hidden"><defs><clipPath id="clip0"><rect x="2621" y="58900" width="14" height="16"/></clipPath></defs><g clip-path="url(#clip0)" transform="translate(-2621 -58900)"><path d="M2631.5 58905 2631.5 58903.5C2631.5 58901.6 2629.93 58900 2628 58900 2626.07 58900 2624.5 58901.6 2624.5 58903.5L2624.5 58907C2624.5 58907.3 2624.72 58907.5 2625 58907.5 2625.28 58907.5 2625.5 58907.3 2625.5 58907L2625.5 58906 2629.5 58906 2629.5 58905 2625.5 58905 2625.5 58903.5C2625.5 58902.1 2626.62 58901 2628 58901 2629.38 58901 2630.5 58902.1 2630.5 58903.5L2630.5 58907C2630.5 58907.3 2630.72 58907.5 2631 58907.5 2631.28 58907.5 2631.5 58907.3 2631.5 58907L2631.5 58906 2634 58906 2634 58915 2622 58915 2622 58906 2623.5 58906 2623.5 58905 2621 58905 2621 58915C2621 58915.6 2621.43 58916 2621.96 58916L2634.04 58916C2634.57 58916 2635 58915.6 2635 58915L2635 58905Z"/></g></svg>